<svg xmlns:xlink="http://www.w3.org/1999/xlink" width="24" height="24" viewBox="0 0 24 24" fill="none" xmlns="http://www.w3.org/2000/svg"><path fill-rule="evenodd" clip-rule="evenodd" d="M16.945 5.96303L16.9491 5.96301C17.5459 5.96302 18.0392 6.44596 18.0371 7.05303C18.036 7.65232 17.5496 8.13802 16.9501 8.13802C16.3527 8.13802 15.8621 7.65413 15.8621 7.05102C15.8621 6.45004 16.3487 5.96624 16.945 5.96303Z" fill="#F2EFE9"></path><path fill-rule="evenodd" clip-rule="evenodd" d="M8.92411 8.92411C10.6229 7.22533 13.3772 7.22533 15.0759 8.92411C16.7747 10.6229 16.7747 13.3772 15.0759 15.0759C13.3772 16.7747 10.6229 16.7747 8.92411 15.0759C7.22533 13.3772 7.22533 10.6229 8.92411 8.92411ZM9.98477 9.98477C11.0978 8.87178 12.9023 8.87178 14.0153 9.98477C15.1283 11.0978 15.1283 12.9023 14.0153 14.0153C12.9023 15.1283 11.0978 15.1283 9.98477 14.0153C8.87178 12.9023 8.87178 11.0978 9.98477 9.98477Z" fill="#F2EFE9"></path><path fill-rule="evenodd" clip-rule="evenodd" d="M7.496 2.25C4.59768 2.25 2.25 4.59889 2.25 7.496V16.504C2.25 19.4023 4.59889 21.75 7.496 21.75H16.504C19.4022 21.75 21.75 19.4012 21.75 16.505V7.496C21.75 4.59779 19.4012 2.25 16.505 2.25H7.496ZM7.496 3.75C5.42632 3.75 3.75 5.4271 3.75 7.496V16.504C3.75 18.5737 5.4271 20.25 7.496 20.25H16.504C18.5738 20.25 20.25 18.5728 20.25 16.505V7.496C20.25 5.42621 18.5728 3.75 16.505 3.75H7.496Z" fill="#F2EFE9"></path></svg>