<svg xmlns:xlink="http://www.w3.org/1999/xlink" width="49" height="48" viewBox="0 0 49 48" fill="none" xmlns="http://www.w3.org/2000/svg"><path d="M12.3667 34.2C14.0667 32.9 15.9667 31.875 18.0667 31.125C20.1667 30.375 22.3667 30 24.6667 30C26.9667 30 29.1667 30.375 31.2667 31.125C33.3667 31.875 35.2667 32.9 36.9667 34.2C38.1334 32.8333 39.0417 31.2833 39.6917 29.55C40.3417 27.8167 40.6667 25.9667 40.6667 24C40.6667 19.5667 39.1084 15.7917 35.9917 12.675C32.875 9.55833 29.1 8 24.6667 8C20.2334 8 16.4584 9.55833 13.3417 12.675C10.225 15.7917 8.66669 19.5667 8.66669 24C8.66669 25.9667 8.99169 27.8167 9.64169 29.55C10.2917 31.2833 11.2 32.8333 12.3667 34.2ZM24.6667 26C22.7 26 21.0417 25.325 19.6917 23.975C18.3417 22.625 17.6667 20.9667 17.6667 19C17.6667 17.0333 18.3417 15.375 19.6917 14.025C21.0417 12.675 22.7 12 24.6667 12C26.6334 12 28.2917 12.675 29.6417 14.025C30.9917 15.375 31.6667 17.0333 31.6667 19C31.6667 20.9667 30.9917 22.625 29.6417 23.975C28.2917 25.325 26.6334 26 24.6667 26ZM24.6667 44C21.9 44 19.3 43.475 16.8667 42.425C14.4334 41.375 12.3167 39.95 10.5167 38.15C8.71669 36.35 7.29169 34.2333 6.24169 31.8C5.19169 29.3667 4.66669 26.7667 4.66669 24C4.66669 21.2333 5.19169 18.6333 6.24169 16.2C7.29169 13.7667 8.71669 11.65 10.5167 9.85C12.3167 8.05 14.4334 6.625 16.8667 5.575C19.3 4.525 21.9 4 24.6667 4C27.4334 4 30.0334 4.525 32.4667 5.575C34.9 6.625 37.0167 8.05 38.8167 9.85C40.6167 11.65 42.0417 13.7667 43.0917 16.2C44.1417 18.6333 44.6667 21.2333 44.6667 24C44.6667 26.7667 44.1417 29.3667 43.0917 31.8C42.0417 34.2333 40.6167 36.35 38.8167 38.15C37.0167 39.95 34.9 41.375 32.4667 42.425C30.0334 43.475 27.4334 44 24.6667 44Z" fill="#44B1FF"></path></svg>