<svg xmlns:xlink="http://www.w3.org/1999/xlink" width="48" height="48" viewBox="0 0 48 48" fill="none" xmlns="http://www.w3.org/2000/svg"><path d="M6 30.55C6 31.5167 6.33333 32.2667 7 32.8C7.66667 33.3333 8.76667 33.6833 10.3 33.85C10.8333 33.9167 11.2583 34.1583 11.575 34.575C11.8917 34.9917 12.0333 35.4667 12 36C11.9667 36.5667 11.7667 37.0333 11.4 37.4C11.0333 37.7667 10.5833 37.9167 10.05 37.85C7.35 37.5167 5.33333 36.7417 4 35.525C2.66667 34.3083 2 32.65 2 30.55C2 28.3833 2.89167 26.625 4.675 25.275C6.45833 23.925 8.93333 23.1167 12.1 22.85C13.4 22.75 14.375 22.5417 15.025 22.225C15.675 21.9083 16 21.4667 16 20.9C16 20.1667 15.65 19.5917 14.95 19.175C14.25 18.7583 13.1 18.4333 11.5 18.2C10.9667 18.1333 10.5417 17.8833 10.225 17.45C9.90833 17.0167 9.78333 16.5333 9.85 16C9.91667 15.4333 10.15 14.975 10.55 14.625C10.95 14.275 11.4167 14.1333 11.95 14.2C14.7167 14.6 16.75 15.3417 18.05 16.425C19.35 17.5083 20 19 20 20.9C20 22.6667 19.3583 24.05 18.075 25.05C16.7917 26.05 14.9 26.65 12.4 26.85C10.2667 27.0167 8.66667 27.4083 7.6 28.025C6.53333 28.6417 6 29.4833 6 30.55ZM27.75 36.5L19.5 28.25L36.75 11C37.4167 10.3333 38.2083 10 39.125 10C40.0417 10 40.8333 10.3333 41.5 11L45 14.5C45.6667 15.1667 46 15.9583 46 16.875C46 17.7917 45.6667 18.5833 45 19.25L27.75 36.5ZM17.95 40C17.3833 40.1333 16.8833 39.9833 16.45 39.55C16.0167 39.1167 15.8667 38.6167 16 38.05L17.55 30.5L25.45 38.4L17.95 40Z" fill="#44B1FF"></path></svg>