<svg xmlns:xlink="http://www.w3.org/1999/xlink" width="48" height="48" viewBox="0 0 48 48" fill="none" xmlns="http://www.w3.org/2000/svg"><path d="M42.35 26.3L35.3 36.3C34.9333 36.8333 34.4583 37.25 33.875 37.55C33.2917 37.85 32.6667 38 32 38H12C10.9 38 9.95833 37.6083 9.175 36.825C8.39167 36.0417 8 35.1 8 34V14C8 12.9 8.39167 11.9583 9.175 11.175C9.95833 10.3917 10.9 10 12 10H32C32.6667 10 33.2917 10.15 33.875 10.45C34.4583 10.75 34.9333 11.1667 35.3 11.7L42.35 21.7C42.85 22.4 43.1 23.1667 43.1 24C43.1 24.8333 42.85 25.6 42.35 26.3Z" fill="#44B1FF"></path></svg>