<svg xmlns:xlink="http://www.w3.org/1999/xlink" width="49" height="48" viewBox="0 0 49 48" fill="none" xmlns="http://www.w3.org/2000/svg"><path d="M29.0578 16.6989C29.8569 15.6798 30.3333 14.3955 30.3333 13C30.3333 9.68629 27.6471 7 24.3333 7C21.0196 7 18.3333 9.68629 18.3333 13C18.3333 16.3137 21.0196 19 24.3333 19C24.7977 19 25.2498 18.9472 25.6838 18.8474L29.646 25.0737C30.239 26.0056 31.4752 26.2803 32.4071 25.6873C33.339 25.0943 33.6137 23.8581 33.0207 22.9262L29.0578 16.6989Z" fill="#44B1FF"></path><path d="M37.8333 41C41.1471 41 43.8333 38.3137 43.8333 35C43.8333 31.6863 41.1471 29 37.8333 29C35.2209 29 32.9984 30.6696 32.1748 33H24.3354C23.2308 33 22.3354 33.8954 22.3354 35C22.3354 36.1046 23.2308 37 24.3354 37H32.1748C32.9984 39.3304 35.2209 41 37.8333 41Z" fill="#44B1FF"></path><path d="M16.8333 35C16.8333 38.3137 14.1471 41 10.8333 41C7.51963 41 4.83334 38.3137 4.83334 35C4.83334 31.6863 7.51963 29 10.8333 29C11.2637 29 11.6834 29.0453 12.088 29.1314L15.8787 22.954C16.4564 22.0125 17.688 21.7176 18.6294 22.2953C19.5709 22.8731 19.8657 24.1046 19.288 25.046L15.4967 31.2244C16.3326 32.2555 16.8333 33.5693 16.8333 35Z" fill="#44B1FF"></path></svg>