<svg xmlns:xlink="http://www.w3.org/1999/xlink" width="49" height="48" viewBox="0 0 49 48" fill="none" xmlns="http://www.w3.org/2000/svg"><path fill-rule="evenodd" clip-rule="evenodd" d="M38.3333 6H10.3333C9.23334 6 8.29168 6.39167 7.50834 7.175C6.72501 7.95833 6.33334 8.9 6.33334 10V41.6C6.33334 42.0667 6.53334 42.3833 6.93334 42.55C7.33334 42.7167 7.70001 42.6333 8.03334 42.3L8.63334 41.7C8.83334 41.5 9.06668 41.4 9.33334 41.4C9.60001 41.4 9.83334 41.5 10.0333 41.7L11.6333 43.3C11.8333 43.5 12.0667 43.6 12.3333 43.6C12.6 43.6 12.8333 43.5 13.0333 43.3L14.6333 41.7C14.8333 41.5 15.0667 41.4 15.3333 41.4C15.6 41.4 15.8333 41.5 16.0333 41.7L17.6333 43.3C17.8333 43.5 18.0667 43.6 18.3333 43.6C18.6 43.6 18.8333 43.5 19.0333 43.3L20.6333 41.7C20.8333 41.5 21.0667 41.4 21.3333 41.4C21.6 41.4 21.8333 41.5 22.0333 41.7L23.6333 43.3C23.8333 43.5 24.0667 43.6 24.3333 43.6C24.6 43.6 24.8333 43.5 25.0333 43.3L26.6333 41.7C26.8333 41.5 27.0667 41.4 27.3333 41.4C27.6 41.4 27.8333 41.5 28.0333 41.7L29.6333 43.3C29.8333 43.5 30.0667 43.6 30.3333 43.6C30.6 43.6 30.8333 43.5 31.0333 43.3L32.6333 41.7C32.8333 41.5 33.0667 41.4 33.3333 41.4C33.6 41.4 33.8333 41.5 34.0333 41.7L35.6333 43.3C35.8333 43.5 36.0667 43.6 36.3333 43.6C36.6 43.6 36.8333 43.5 37.0333 43.3L38.6333 41.7C38.8333 41.5 39.0667 41.4 39.3333 41.4C39.6 41.4 39.8333 41.5 40.0333 41.7L40.6333 42.3C40.9667 42.6333 41.3333 42.7167 41.7333 42.55C42.1333 42.3833 42.3333 42.0667 42.3333 41.6V10C42.3333 8.9 41.9417 7.95833 41.1583 7.175C40.375 6.39167 39.4333 6 38.3333 6ZM14.3333 34H34.3333C34.9 34 35.375 33.8083 35.7583 33.425C36.1417 33.0417 36.3333 32.5667 36.3333 32C36.3333 31.4333 36.1417 30.9583 35.7583 30.575C35.375 30.1917 34.9 30 34.3333 30H14.3333C13.7667 30 13.2917 30.1917 12.9083 30.575C12.525 30.9583 12.3333 31.4333 12.3333 32C12.3333 32.5667 12.525 33.0417 12.9083 33.425C13.2917 33.8083 13.7667 34 14.3333 34ZM14.3333 26H34.3333C34.9 26 35.375 25.8083 35.7583 25.425C36.1417 25.0417 36.3333 24.5667 36.3333 24C36.3333 23.4333 36.1417 22.9583 35.7583 22.575C35.375 22.1917 34.9 22 34.3333 22H14.3333C13.7667 22 13.2917 22.1917 12.9083 22.575C12.525 22.9583 12.3333 23.4333 12.3333 24C12.3333 24.5667 12.525 25.0417 12.9083 25.425C13.2917 25.8083 13.7667 26 14.3333 26ZM14.3333 18H34.3333C34.9 18 35.375 17.8083 35.7583 17.425C36.1417 17.0417 36.3333 16.5667 36.3333 16C36.3333 15.4333 36.1417 14.9583 35.7583 14.575C35.375 14.1917 34.9 14 34.3333 14H14.3333C13.7667 14 13.2917 14.1917 12.9083 14.575C12.525 14.9583 12.3333 15.4333 12.3333 16C12.3333 16.5667 12.525 17.0417 12.9083 17.425C13.2917 17.8083 13.7667 18 14.3333 18Z" fill="#44B1FF"></path></svg>