<svg xmlns:xlink="http://www.w3.org/1999/xlink" width="49" height="48" viewBox="0 0 49 48" fill="none" xmlns="http://www.w3.org/2000/svg"><path d="M18.6666 29.9997H12.4666C11.6666 29.9997 11.075 29.6414 10.6916 28.9247C10.3083 28.208 10.35 27.5164 10.8166 26.8497L25.7666 5.34969C26.1 4.88302 26.5333 4.55802 27.0666 4.37469C27.6 4.19135 28.15 4.19969 28.7166 4.39969C29.2833 4.59969 29.7 4.94969 29.9666 5.44969C30.2333 5.94969 30.3333 6.48302 30.2666 7.04969L28.6666 19.9997H36.4166C37.2833 19.9997 37.8916 20.383 38.2416 21.1497C38.5916 21.9164 38.4833 22.633 37.9166 23.2997L21.4666 42.9997C21.1 43.433 20.65 43.7164 20.1166 43.8497C19.5833 43.983 19.0666 43.933 18.5666 43.6997C18.0666 43.4664 17.675 43.108 17.3916 42.6247C17.1083 42.1414 17 41.6164 17.0666 41.0497L18.6666 29.9997Z" fill="#44B1FF"></path></svg>