<svg xmlns:xlink="http://www.w3.org/1999/xlink" width="104" height="33" viewBox="0 0 104 33" fill="none" xmlns="http://www.w3.org/2000/svg"><path d="M0 25.1213H5.33106V16.4716C5.33106 13.2996 6.47724 12.3534 8.18318 12.3534C9.88912 12.3534 10.6621 13.2996 10.6621 15.632V25.1213H16.0332V16.4716C16.0332 13.2996 17.1794 12.3534 18.8586 12.3534C20.5379 12.3534 21.3642 13.3263 21.3642 15.672V25.1213H26.7353V14.6857C26.7353 11.1672 25.5891 7.84863 20.7778 7.84863C18.2989 7.84863 16.3131 9.14142 15.4068 10.954C14.6738 9.1814 13.1411 7.84863 10.1424 7.84863C7.81001 7.84863 6.06409 9.07478 5.33106 10.7407V8.30177H0V25.1213Z" fill="#141921"></path><path d="M31.5335 7.1559C33.4527 7.1559 34.8388 5.68986 34.8388 3.91728C34.8388 2.1447 33.4394 0.638672 31.5335 0.638672C29.6276 0.638672 28.2549 2.10471 28.2549 3.91728C28.2549 5.72984 29.6143 7.1559 31.5335 7.1559ZM28.8813 25.1216H34.1857V8.9418H28.8813V25.1216Z" fill="#141921"></path><path d="M49.0595 8.31545V10.7278C48.2198 8.98183 46.1674 7.8623 43.8617 7.8623C39.0104 7.8623 35.8118 11.594 35.8118 16.5519C35.8118 21.5098 38.8105 25.135 43.795 25.135C45.9941 25.135 48.2198 24.0821 49.0595 22.4161V24.6552C49.0595 27.6539 47.5668 28.7334 45.0878 28.7334C42.9287 28.7334 41.7826 27.9338 41.5293 26.601H36.0916C36.1583 28.4136 37.3844 30.2261 39.0904 31.279C40.7297 32.2519 42.7555 32.6384 45.1545 32.6384C47.5534 32.6384 49.6192 32.2253 51.1519 31.1324C53.2044 29.7063 54.3639 27.294 54.3905 24.0554V8.31545H49.0595ZM45.2611 21.0167C42.8621 21.0167 41.2894 19.1642 41.2894 16.6186C41.2894 14.073 42.8621 12.2204 45.2611 12.2204C47.8067 12.2204 49.2994 14.1796 49.2994 16.6186C49.2994 19.0575 47.8067 21.0167 45.2611 21.0167Z" fill="#141921"></path><path d="M67.3322 7.86203C64.7866 7.86203 62.8675 8.87494 61.8945 10.7541V0.705078H56.5635V25.1214H61.8945V16.3251C61.8945 13.7395 63.0141 12.3535 65.1332 12.3535C67.2523 12.3535 68.0919 13.6462 68.0919 16.4717V25.1214H73.463V14.7258C73.463 10.1544 71.4105 7.8487 67.3322 7.8487V7.86203Z" fill="#141921"></path><path d="M83.2979 20.9765C81.9785 20.9765 80.9656 20.59 80.9656 18.1111V12.5268H85.1505V8.30193H80.9656V3.31738H75.6345V19.2306C75.6345 24.8416 79.0864 25.4013 81.592 25.4013C83.5112 25.4013 85.6169 24.8815 86.8164 24.495C86.8164 24.495 86.19 23.3089 85.9501 22.6691C85.7102 22.0294 85.3904 20.8433 85.3904 20.8433C84.8972 20.9099 83.8977 20.9632 83.2979 20.9632V20.9765Z" fill="#141921"></path><path d="M98.6248 8.31641V16.6595C98.6248 19.2451 97.5452 20.911 95.3861 20.911C93.2271 20.911 92.4274 19.445 92.4274 17.2859V8.31641H87.0963V18.0856C87.0963 22.2705 89.0155 25.1359 93.2937 25.1359C95.8393 25.1359 97.6785 24.123 98.6248 22.3504V24.9627C98.6248 27.5749 97.332 28.7344 95.3861 28.7344C93.4403 28.7344 92.5607 27.8947 92.4541 26.4687H87.083C87.123 28.2812 87.9493 29.8539 89.1755 30.8935C90.5749 32.0396 92.5207 32.6394 95.3728 32.6394C98.2249 32.6394 100.038 31.973 101.544 30.6802C102.97 29.3874 103.943 27.335 103.943 24.6161V8.31641H98.6248Z" fill="#141921"></path></svg>