<svg xmlns:xlink="http://www.w3.org/1999/xlink" width="48" height="49" viewBox="0 0 48 49" fill="none" xmlns="http://www.w3.org/2000/svg"><path fill-rule="evenodd" clip-rule="evenodd" d="M32 42.3568L31.9129 10.9349C31.6873 10.7233 31.2473 10.7872 31.0753 10.8343L29.9295 11.1675C29.788 10.7309 29.6045 10.3072 29.3811 9.90185C28.5681 8.44548 27.3798 7.67539 25.9414 7.67329H25.9369C25.8409 7.67329 25.7459 7.68168 25.6499 7.68901L25.6387 7.69006C25.5971 7.64199 25.5539 7.59517 25.5092 7.54966C24.8838 6.92101 24.0797 6.61402 23.117 6.64022C21.2609 6.69051 19.4126 7.9499 17.9127 10.1868C16.8573 11.7616 16.0566 13.7387 15.8276 15.2695L12.1724 16.3329C11.0969 16.6504 11.0634 16.6818 10.9215 17.6342C10.8154 18.3551 8 38.806 8 38.806L31.5957 42.6387L32 42.3558V42.3568ZM24.2695 8.07668C23.9557 7.88284 23.5883 7.79274 23.1527 7.80112C20.287 7.87865 17.7876 12.0833 17.1499 14.8849L19.895 14.0865L20.3853 13.9441C20.7449 12.165 21.6473 10.3189 22.8277 9.13071C23.2405 8.70496 23.7277 8.34849 24.2684 8.07668H24.2695ZM21.7422 13.5491L25.6823 12.4028C25.6946 11.4389 25.5829 10.014 25.0691 9.00812C24.5219 9.21977 24.0618 9.59067 23.7312 9.92281C22.8456 10.8165 22.123 12.1796 21.7433 13.5491H21.7422ZM26.9163 12.0445L28.7479 11.5112C28.4553 10.6185 27.7606 9.12233 26.3524 8.87087C26.7901 9.93223 26.9029 11.1612 26.9163 12.0445Z" fill="#95BF47"></path><path d="M36.4531 13.1311C36.343 13.1205 34.2091 13.0805 34.2091 13.0805C34.2091 13.0805 32.4238 10.9893 32.2473 10.7756C32.179 10.6996 32.0924 10.6516 32 10.6387V42.6387L40 40.2389C40 40.2389 36.7353 13.6081 36.7144 13.4259C36.7043 13.3485 36.673 13.2775 36.6255 13.224C36.5779 13.1706 36.517 13.1379 36.4522 13.1311H36.4531Z" fill="#5E8E3E"></path><path d="M26 17.0475L24.7753 21.5443C24.7753 21.5443 23.4101 20.9337 21.7905 21.0341C19.417 21.1809 19.3917 22.6516 19.4158 23.0207C19.5447 25.0298 24.9329 25.47 25.2357 30.1802C25.474 33.8858 23.234 36.422 20.0063 36.6206C16.1329 36.8611 14 34.6172 14 34.6172L14.8207 31.1881C14.8207 31.1881 16.9675 32.7785 18.6849 32.6713C19.8083 32.6024 20.2089 31.7062 20.1686 31.0719C19.9994 28.4498 15.6115 28.6033 15.3341 24.2939C15.1016 20.665 17.5269 16.9911 22.8806 16.6592C24.9433 16.5305 26 17.0486 26 17.0486" fill="#FFFFFF"></path></svg>