<svg xmlns:xlink="http://www.w3.org/1999/xlink" width="119" height="33" viewBox="0 0 119 33" fill="none" xmlns="http://www.w3.org/2000/svg"><path d="M28.2428 22.5121L28.2232 22.4535L38.6881 12.9315V8.34618H21.9011V12.9315H31.934L31.9536 12.9706L21.5869 22.5121V27.0974H38.8844V22.5121H28.2428ZM49.1922 7.8974C47.2485 7.8974 45.6778 8.19009 44.4605 8.77545C43.3217 9.28277 42.3596 10.1218 41.7117 11.1755C41.0834 12.2291 40.6907 13.4194 40.5533 14.6486L45.6581 15.3511C45.8348 14.2779 46.2079 13.4974 46.7576 13.0486C47.3859 12.5803 48.1713 12.3462 48.9566 12.3657C49.9972 12.3657 50.7433 12.6389 51.2145 13.1852C51.6857 13.7315 51.9214 14.4925 51.9214 15.5072V16.0145H47.0129C44.5194 16.0145 42.7327 16.5608 41.6332 17.673C40.5337 18.7657 40.0036 20.2291 40.0036 22.0243C40.0036 23.8779 40.5533 25.2438 41.6332 26.1413C42.713 27.0389 44.0874 27.4877 45.7367 27.4877C47.7786 27.4877 49.3493 26.7852 50.4488 25.3803C51.0967 24.5218 51.5679 23.5462 51.8036 22.4925H51.9803L52.6871 27.0779H57.3011V15.4681C57.3011 13.0681 56.6728 11.195 55.3966 9.88765C54.1204 8.58033 52.0392 7.8974 49.1922 7.8974ZM50.8022 22.2389C50.0758 22.8438 49.1137 23.156 47.916 23.156C46.9343 23.156 46.2471 22.9803 45.8545 22.6486C45.6581 22.4925 45.5207 22.2779 45.4225 22.0633C45.3244 21.8291 45.2655 21.595 45.2851 21.3413C45.2655 21.1072 45.3047 20.873 45.4029 20.6584C45.5011 20.4438 45.6189 20.2486 45.7759 20.073C45.9526 19.9169 46.149 19.7803 46.3846 19.7023C46.6202 19.6242 46.8558 19.5852 47.0914 19.6047H51.9214V19.9169C51.9214 20.3657 51.8428 20.8145 51.6465 21.2047C51.4305 21.595 51.1556 21.9657 50.8022 22.2389ZM85.2402 8.34618H79.7819V27.1169H85.2402V8.34618ZM117.459 8.34618C115.908 8.34618 114.711 8.89252 113.808 9.9657C113.179 10.7462 112.688 11.8974 112.355 13.4194H112.198L111.491 8.34618H106.837V27.1169H112.296V17.4974C112.296 16.2876 112.59 15.3511 113.16 14.7072C113.729 14.0633 114.789 13.7315 116.321 13.7315H118.402V8.34618H117.459ZM101.419 8.95106C100.142 8.19009 98.5323 7.81935 96.5886 7.81935C93.5257 7.81935 91.15 8.67789 89.4222 10.4145C87.6944 12.1511 86.8305 14.5315 86.8305 17.5559C86.7912 19.3901 87.1839 21.2047 88.0085 22.8633C88.7546 24.3267 89.913 25.556 91.3463 26.3755C92.7992 27.2145 94.5074 27.6243 96.51 27.6243C98.2378 27.6243 99.6711 27.3511 100.83 26.8243C101.909 26.356 102.871 25.6145 103.578 24.6584C104.265 23.7413 104.776 22.6877 105.07 21.595L100.358 20.2877C100.162 21.0096 99.7693 21.6535 99.2588 22.1999C98.7287 22.7267 97.8451 22.9999 96.5886 22.9999C95.0964 22.9999 93.9969 22.5706 93.2704 21.7316C92.7403 21.1267 92.4065 20.2486 92.2691 19.1169H105.149C105.208 18.5901 105.228 18.1413 105.228 17.7901V16.6194C105.267 15.0584 104.933 13.4974 104.265 12.073C103.657 10.7657 102.655 9.67301 101.419 8.95106ZM96.4315 12.3072C98.6501 12.3072 99.9067 13.3803 100.201 15.5462H92.3673C92.4851 14.8242 92.7992 14.1413 93.2508 13.5559C93.9576 12.7169 95.0179 12.3072 96.4315 12.3072ZM82.5699 0.775449C82.1576 0.755937 81.7453 0.833986 81.3723 0.97057C80.9796 1.12667 80.6458 1.3413 80.3513 1.61447C80.0568 1.90716 79.8408 2.23886 79.6837 2.62911C79.5267 2.99984 79.4678 3.4096 79.4874 3.81935C79.4678 4.22911 79.5463 4.63887 79.7034 5.0096C79.8605 5.39984 80.0764 5.73155 80.3709 6.02423C80.6654 6.31692 81.0189 6.53155 81.3919 6.68765C81.765 6.84374 82.1773 6.90228 82.5896 6.88277C83.0019 6.90228 83.4142 6.82423 83.7872 6.68765C84.1603 6.53155 84.5137 6.31692 84.8082 6.02423C85.1027 5.73155 85.3187 5.38033 85.4561 5.0096C85.5936 4.61935 85.6721 4.22911 85.6525 3.81935C85.6721 3.4096 85.6132 2.99984 85.4561 2.62911C85.2991 2.25837 85.0831 1.90716 84.7886 1.61447C84.4941 1.32179 84.1603 1.10716 83.7676 0.95106C83.3946 0.833988 82.9823 0.755937 82.5699 0.775449ZM71.3001 7.81935C69.4348 7.81935 67.9427 8.40472 66.8235 9.55594C65.9793 10.4145 65.3706 11.7023 64.9779 13.3998H64.8012L64.0944 8.32667H59.4412V32.4828H64.8994V22.5316H65.0957C65.2528 23.195 65.4884 23.8389 65.7829 24.4633C66.2541 25.4584 67.0002 26.3169 67.9623 26.8828C68.944 27.4096 70.0631 27.6828 71.1823 27.6633C73.4598 27.6633 75.2072 26.7852 76.4049 25.0096C77.6026 23.234 78.1916 20.7755 78.1916 17.6145C78.1916 14.5511 77.6222 12.1511 76.4638 10.434C75.3054 8.6974 73.5776 7.81935 71.3001 7.81935ZM71.8498 21.4194C71.2215 22.3364 70.2202 22.7852 68.8655 22.7852C68.3157 22.8047 67.7463 22.7072 67.2358 22.473C66.7253 22.2389 66.2738 21.8877 65.94 21.4584C65.2332 20.5803 64.8798 19.3706 64.8798 17.8291V17.4779C64.8798 15.9169 65.2332 14.7267 65.94 13.9072C66.6468 13.0876 67.6285 12.6779 68.8655 12.6779C70.2398 12.6779 71.2412 13.1072 71.8694 13.9852C72.4977 14.8633 72.8119 16.073 72.8119 17.634C72.8119 19.2535 72.4977 20.5218 71.8498 21.4194Z" fill="#201515"></path><path d="M19.4665 22.5117H0.578613V27.1166H19.4665V22.5117Z" fill="#FF4F00"></path></svg>