<svg xmlns:xlink="http://www.w3.org/1999/xlink" xmlns="http://www.w3.org/2000/svg" role="img" aria-label="Pie chart representing data distribution" cx="50%" cy="50%" class="recharts-surface" width="128" height="128" viewBox="0 0 128 128" style="width: 100%; height: 100%;"><title></title><desc></desc><defs><clipPath id="recharts3-clip"><rect x="5" y="5" height="118" width="118"></rect></clipPath></defs><g class="recharts-layer recharts-pie" tabindex="0"><g class="recharts-layer"><g class="recharts-layer recharts-pie-sector" tabindex="-1"><path cx="69" cy="69" name="Digital products" stroke-width="5px" stroke="#FFFFFF" fill="#65DC8D" color="var(--kit-green)" tabindex="-1" class="recharts-sector" d="M 69,14
    A 55,55,0,
    0,1,
    72.45347857411222,123.89147006355493
  L 70.25581039058626,88.96053456856544
            A 20,20,0,
            0,0,
            69,49 Z" role="img"></path></g><g class="recharts-layer recharts-pie-sector" tabindex="-1"><path cx="69" cy="69" name="Blog display ads" stroke-width="5px" stroke="#FFFFFF" fill="#44B1FF" color="var(--kit-blue)" tabindex="-1" class="recharts-sector" d="M 72.45347857411222,123.89147006355493
    A 55,55,0,
    0,1,
    26.62177164733159,33.94168056382207
  L 53.589735144484216,56.25152020502621
            A 20,20,0,
            0,0,
            70.25581039058626,88.96053456856544 Z" role="img"></path></g><g class="recharts-layer recharts-pie-sector" tabindex="-1"><path cx="69" cy="69" name="YouTube ads" stroke-width="5px" stroke="#FFFFFF" fill="#FF7647" color="var(--kit-orange)" tabindex="-1" class="recharts-sector" d="M 26.62177164733159,33.94168056382207
    A 55,55,0,
    0,1,
    48.75314960234272,17.86229327614617
  L 61.63750894630644,50.40447028223497
            A 20,20,0,
            0,0,
            53.589735144484216,56.25152020502621 Z" role="img"></path></g><g class="recharts-layer recharts-pie-sector" tabindex="-1"><path cx="69" cy="69" name="Book sales" stroke-width="5px" stroke="#FFFFFF" fill="#DDA4F8" color="var(--kit-purple)" tabindex="-1" class="recharts-sector" d="M 48.75314960234272,17.86229327614617
    A 55,55,0,
    0,1,
    68.99999999999999,14
  L 69,49
            A 20,20,0,
            0,0,
            61.63750894630644,50.40447028223497 Z" role="img"></path></g></g></g></svg>