<svg xmlns:xlink="http://www.w3.org/1999/xlink" xmlns="http://www.w3.org/2000/svg" role="img" aria-label="Pie chart representing data distribution" cx="50%" cy="50%" class="recharts-surface" width="128" height="128" viewBox="0 0 128 128" style="width: 100%; height: 100%;"><title></title><desc></desc><defs><clipPath id="recharts5-clip"><rect x="5" y="5" height="118" width="118"></rect></clipPath></defs><g class="recharts-layer recharts-pie" tabindex="0"><g class="recharts-layer"><g class="recharts-layer recharts-pie-sector" tabindex="-1"><path cx="69" cy="69" name="Courses" stroke-width="5px" stroke="#FFFFFF" fill="#DDA4F8" color="var(--kit-purple)" tabindex="-1" class="recharts-sector" d="M 69,14
    A 55,55,0,
    1,1,
    16.691891603766564,85.99593469062214
  L 49.97886967409693,75.18033988749896
            A 20,20,0,
            1,0,
            69,49 Z" role="img"></path></g><g class="recharts-layer recharts-pie-sector" tabindex="-1"><path cx="69" cy="69" name="Subscriptions" stroke-width="5px" stroke="#FFFFFF" fill="#44B1FF" color="var(--kit-blue)" tabindex="-1" class="recharts-sector" d="M 16.691891603766564,85.99593469062214
    A 55,55,0,
    0,1,
    24.50406530937787,36.671811123914004
  L 52.81966011250104,57.24429495415055
            A 20,20,0,
            0,0,
            49.97886967409693,75.18033988749896 Z" role="img"></path></g><g class="recharts-layer recharts-pie-sector" tabindex="-1"><path cx="69" cy="69" name="Sponsorships" stroke-width="5px" stroke="#FFFFFF" fill="#65DC8D" color="var(--kit-green)" tabindex="-1" class="recharts-sector" d="M 24.50406530937787,36.671811123914004
    A 55,55,0,
    0,1,
    52.004065309377886,16.691891603766557
  L 62.81966011250105,49.97886967409693
            A 20,20,0,
            0,0,
            52.81966011250104,57.24429495415055 Z" role="img"></path></g><g class="recharts-layer recharts-pie-sector" tabindex="-1"><path cx="69" cy="69" name="Coaching" stroke-width="5px" stroke="#FFFFFF" fill="#FF7647" color="var(--kit-orange)" tabindex="-1" class="recharts-sector" d="M 52.004065309377886,16.691891603766557
    A 55,55,0,
    0,1,
    68.99999999999999,14
  L 69,49
            A 20,20,0,
            0,0,
            62.81966011250105,49.97886967409693 Z" role="img"></path></g></g></g></svg>