<svg width="16" height="12" viewBox="0 0 16 12" fill="none" xmlns="http://www.w3.org/2000/svg">
<g clip-path="url(#clip0_5229_424)">
<path d="M12.1539 6.9965H1.00032C0.7169 6.9965 0.47932 6.9007 0.28759 6.7091C0.09586 6.5176 0 6.2802 0 5.997C0 5.7138 0.09586 5.4765 0.28759 5.2849C0.47932 5.0933 0.7169 4.9976 1.00032 4.9976H12.1539L9.303 2.14909C9.1029 1.9492 9.0071 1.71599 9.0154 1.44947C9.0237 1.18294 9.1196 0.949741 9.303 0.749841C9.503 0.549951 9.7406 0.445842 10.0157 0.437512C10.2908 0.429182 10.5284 0.524962 10.7284 0.724862L15.3049 5.2974C15.4049 5.3973 15.4758 5.5056 15.5175 5.6222C15.5592 5.7388 15.58 5.8638 15.58 5.997C15.58 6.1303 15.5592 6.2552 15.5175 6.3718C15.4758 6.4884 15.4049 6.5967 15.3049 6.6966L10.7284 11.2692C10.5284 11.4691 10.2908 11.5648 10.0157 11.5565C9.7406 11.5482 9.503 11.4441 9.303 11.2442C9.1196 11.0443 9.0237 10.8111 9.0154 10.5446C9.0071 10.278 9.1029 10.0448 9.303 9.8449L12.1539 6.9965Z" fill="black"/>
</g>
<defs>
<clipPath id="clip0_5229_424">
<rect width="16" height="12" fill="white"/>
</clipPath>
</defs>
</svg>
